<?xml version="1.0" encoding="UTF-8"?>
<svg id="Layer_1" data-name="Layer 1" xmlns="http://www.w3.org/2000/svg" viewBox="0 0 526.44 284.4">
  <defs>
    <style>
      .cls-1, .cls-2 {
        fill: #231f20;
      }

      .cls-2 {
        font-family: SavoyeLetPlain, 'Savoye LET';
        font-size: 180px;
        stroke: #231f20;
        stroke-miterlimit: 10;
        stroke-width: 3px;
      }
    </style>
  </defs>
  <text class="cls-2" transform="translate(209.16 204.01) rotate(-49)"><tspan x="0" y="0">D</tspan></text>
  <text class="cls-2" transform="translate(136.39 61.15) rotate(131)"><tspan x="0" y="0">D</tspan></text>
  <text class="cls-2" transform="translate(396.13 215.84)"><tspan x="0" y="0">D</tspan></text>
  <text class="cls-2" transform="translate(459.1 68.56) rotate(-180)"><tspan x="0" y="0">D</tspan></text>
  <path class="cls-1" d="M431.65,149.12c5.79,0,5.8-9,0-9s-5.8,9,0,9h0Z"/>
  <path class="cls-1" d="M432.11,148.67h.45v-9h-.14c.4,.06,.8,.12,1.2,.17l-.13-.04,1.07,.45c-1.08-.55-2.19-1.03-3.32-1.48-1.02-.4-2.56-.08-3.47,.45s-1.82,1.62-2.07,2.69c-.26,1.15-.21,2.44,.45,3.47l.7,.91c.56,.56,1.22,.94,1.99,1.16,.23,.09,.46,.19,.69,.28l-1.07-.45c1.32,.56,2.6,1.49,4.1,1.39,1.2-.08,2.31-.45,3.18-1.32,.78-.78,1.37-2.06,1.32-3.18s-.43-2.37-1.32-3.18-1.96-1.32-3.18-1.32h-.45c-1.16,0-2.36,.5-3.18,1.32s-1.37,2.06-1.32,3.18,.43,2.37,1.32,3.18,1.96,1.32,3.18,1.32h0Z"/>
  <path class="cls-1" d="M430.04,147.62c5.79,0,5.8-9,0-9s-5.8,9,0,9h0Z"/>
  <path class="cls-1" d="M425.31,145.71c.56-.04,.6-.06,.15-.06-.36-.13-.29-.07,.2,.17,.39,.27,.81,.51,1.21,.75,.95,.58,1.92,1.13,2.9,1.66,2.07,1.12,5,.58,6.16-1.61s.6-4.96-1.61-6.16c-2.73-1.47-5.72-4.14-9-3.75-2.33,.27-4.62,1.87-4.5,4.5,.1,2.2,2,4.79,4.5,4.5h0Z"/>
</svg>